<!DOCTYPE svg PUBLIC "-//W3C//DTD SVG 1.1//EN" "http://www.w3.org/Graphics/SVG/1.1/DTD/svg11.dtd">
<!-- Uploaded to: SVG Repo, www.svgrepo.com, Transformed by: SVG Repo Mixer Tools -->
<svg fill="#ffffff" width="800px" height="800px" viewBox="0 0 14 14" role="img" focusable="false" aria-hidden="true" xmlns="http://www.w3.org/2000/svg">
<g id="SVGRepo_bgCarrier" stroke-width="0"/>
<g id="SVGRepo_tracerCarrier" stroke-linecap="round" stroke-linejoin="round"/>
<g id="SVGRepo_iconCarrier">
<path d="M 3.25,4.75 C 3.664,4.75 4,5.086 4,5.5 l 0,5.25 C 4,11.164 3.664,11.5 3.25,11.5 l -1.5,0 C 1.3365,11.5 1,11.164 1,10.75 L 1,5.5 C 1,5.086 1.3365,4.75 1.75,4.75 l 1.5,0 z M 7.75,2.5 c 0.414,0 0.75,0.336 0.75,0.75 l 0,7.5 c 0,0.414 -0.336,0.75 -0.75,0.75 l -1.5,0 C 5.8365,11.5 5.5,11.164 5.5,10.75 l 0,-7.5 C 5.5,2.836 5.8365,2.5 6.25,2.5 l 1.5,0 z m 4.5,3.75 C 12.664,6.25 13,6.586 13,7 l 0,3.75 c 0,0.414 -0.336,0.75 -0.75,0.75 l -1.5,0 C 10.336,11.5 10,11.164 10,10.75 L 10,7 c 0,-0.414 0.336,-0.75 0.75,-0.75 l 1.5,0 z"/>
</g>
</svg>