<svg width="24" height="24" viewBox="0 0 24 24" fill="none" xmlns="http://www.w3.org/2000/svg">
<rect width="24" height="24" rx="12" fill="#191717"/>
<path fill-rule="evenodd" clip-rule="evenodd" d="M11.6948 5C9.86746 5.00095 8.09999 5.64817 6.70849 6.82594C5.31698 8.00371 4.39218 9.63523 4.09944 11.4288C3.80671 13.2223 4.16512 15.0609 5.1106 16.6157C6.05608 18.1706 7.52698 19.3404 9.26027 19.9159C9.64266 19.9869 9.7867 19.7499 9.7867 19.5484C9.7867 19.3469 9.77905 18.7626 9.7765 18.1239C7.6351 18.5864 7.1826 17.2202 7.1826 17.2202C6.83335 16.333 6.32859 16.0998 6.32859 16.0998C5.63009 15.6258 6.38086 15.6347 6.38086 15.6347C7.15456 15.6892 7.56118 16.4243 7.56118 16.4243C8.24693 17.5941 9.36224 17.2557 9.80072 17.058C9.86955 16.5624 10.0697 16.2253 10.2902 16.0339C8.57961 15.8413 6.78236 15.1848 6.78236 12.252C6.77176 11.4914 7.05562 10.7559 7.5752 10.1976C7.49617 10.0049 7.23231 9.22676 7.6504 8.16975C7.6504 8.16975 8.29665 7.96443 9.76758 8.95427C11.0293 8.6112 12.3604 8.6112 13.6221 8.95427C15.0918 7.96443 15.7367 8.16975 15.7367 8.16975C16.1561 9.22422 15.8922 10.0024 15.8132 10.1976C16.3344 10.756 16.6189 11.4928 16.6073 12.2546C16.6073 15.1936 14.8062 15.8413 13.0931 16.0301C13.3684 16.2684 13.6145 16.7335 13.6145 17.4483C13.6145 18.4724 13.6055 19.2962 13.6055 19.5484C13.6055 19.7525 13.7445 19.9907 14.1345 19.9159C15.868 19.3403 17.339 18.1703 18.2845 16.6152C19.23 15.0601 19.5882 13.2212 19.2951 11.4275C19.0021 9.63381 18.0768 8.00228 16.6848 6.82471C15.2929 5.64715 13.525 5.00035 11.6974 5H11.6948Z" fill="white"/>
<path d="M6.91222 15.9895C6.89565 16.0276 6.83446 16.039 6.78475 16.0124C6.73504 15.9857 6.69808 15.9363 6.71592 15.897C6.73377 15.8577 6.79368 15.8476 6.84339 15.8742C6.8931 15.9008 6.93133 15.9515 6.91222 15.9895Z" fill="white"/>
<path d="M7.22442 16.3356C7.19802 16.3488 7.16782 16.3525 7.13899 16.346C7.11016 16.3395 7.08449 16.3233 7.06636 16.3001C7.01665 16.2468 7.00645 16.1733 7.04469 16.1404C7.08293 16.1074 7.15177 16.1226 7.20148 16.1759C7.25119 16.2291 7.26266 16.3026 7.22442 16.3356Z" fill="white"/>
<path d="M7.52791 16.7753C7.48075 16.8083 7.40044 16.7753 7.35583 16.7094C7.34349 16.6976 7.33368 16.6834 7.32698 16.6678C7.32028 16.6521 7.31682 16.6352 7.31682 16.6182C7.31682 16.6011 7.32028 16.5843 7.32698 16.5686C7.33368 16.5529 7.34349 16.5388 7.35583 16.5269C7.40299 16.4952 7.48329 16.5269 7.52791 16.5916C7.57252 16.6562 7.57379 16.7424 7.52791 16.7753Z" fill="white"/>
<path d="M7.93963 17.2012C7.89757 17.2481 7.81217 17.2354 7.74206 17.172C7.67196 17.1087 7.65538 17.0225 7.69745 16.9769C7.73951 16.9312 7.82491 16.9439 7.89757 17.006C7.97022 17.0681 7.98424 17.1556 7.93963 17.2012Z" fill="white"/>
<path d="M8.51694 17.4496C8.49782 17.5091 8.41114 17.5357 8.32447 17.5104C8.23779 17.485 8.18043 17.4141 8.197 17.3532C8.21357 17.2924 8.30153 17.2645 8.38948 17.2924C8.47743 17.3203 8.53351 17.3875 8.51694 17.4496Z" fill="white"/>
<path d="M9.14672 17.4927C9.14672 17.5548 9.07534 17.608 8.98357 17.6093C8.89179 17.6105 8.81659 17.5598 8.81659 17.4977C8.81659 17.4356 8.88797 17.3824 8.97974 17.3811C9.07151 17.3799 9.14672 17.4293 9.14672 17.4927Z" fill="white"/>
<path d="M9.73302 17.3951C9.74449 17.4572 9.68076 17.5219 9.58899 17.5371C9.49721 17.5523 9.41691 17.5155 9.40544 17.4547C9.39396 17.3938 9.46025 17.3279 9.54947 17.3115C9.6387 17.295 9.72155 17.333 9.73302 17.3951Z" fill="white"/>
</svg>
