<?xml version="1.0" encoding="utf-8"?>
<!-- Generator: Adobe Illustrator 25.3.1, SVG Export Plug-In . SVG Version: 6.00 Build 0)  -->
<svg version="1.1" xmlns="http://www.w3.org/2000/svg" xmlns:xlink="http://www.w3.org/1999/xlink" x="0px" y="0px"
	 viewBox="0 0 800 800" style="enable-background:new 0 0 800 800;" xml:space="preserve">
<style type="text/css">
	.st0{display:none;}
	.st1{display:inline;fill:#F37037;}
	.st2{display:inline;fill:#414042;}
	.st3{display:inline;}
	.st4{fill:#F8B79A;}
	.st5{fill:#FFFFFF;}
	.st6{fill:#6D6E71;}
	.st7{fill:#BBBDBF;}
</style>
<g id="BGs" class="st0">
</g>
<g id="Layer_1">
	<g>
		<path d="M307.19,453.17h124.57c-20.14,46.83-66.29,79.8-120.53,79.8c-72.71,0-131.71-58.92-131.71-131.62
			c0-72.77,59-131.74,131.71-131.74c54.23,0,100.77,32.84,120.96,79.7h58.22c-22.09-78.22-93.94-135.53-179.17-135.53
			C208.37,213.79,125,297.12,125,399.94c0,102.89,83.37,186.26,186.23,186.26c49.08,0,93.37-19.35,126.63-50.39v48.03h53.23V399.94
			H307.19V453.17z"/>
		<polygon points="544.32,346.71 544.32,216.04 491.09,216.04 491.09,399.94 675,399.94 675,346.71 		"/>
	</g>
</g>
</svg>
