<svg width="25" height="24" viewBox="0 0 25 24" fill="none" xmlns="http://www.w3.org/2000/svg">
<rect x="0.5" width="24" height="24" rx="12" fill="black"/>
<path d="M10.304 18.33C15.626 18.33 18.536 13.92 18.536 10.098C18.536 9.972 18.536 9.846 18.53 9.726C19.094 9.318 19.586 8.808 19.976 8.226C19.46 8.454 18.902 8.61 18.314 8.682C18.914 8.322 19.37 7.758 19.586 7.08C19.028 7.41 18.41 7.65 17.75 7.78199C17.222 7.21799 16.472 6.87 15.638 6.87C14.042 6.87 12.746 8.166 12.746 9.762C12.746 9.99 12.77 10.212 12.824 10.422C10.418 10.302 8.28796 9.15 6.85996 7.398C6.61396 7.824 6.46996 8.322 6.46996 8.85C6.46996 9.852 6.97996 10.74 7.75996 11.256C7.28596 11.244 6.84196 11.112 6.45196 10.896C6.45196 10.908 6.45196 10.92 6.45196 10.932C6.45196 12.336 7.44796 13.5 8.77396 13.77C8.53396 13.836 8.27596 13.872 8.01196 13.872C7.82596 13.872 7.64596 13.854 7.46596 13.818C7.83196 14.97 8.89996 15.804 10.166 15.828C9.17596 16.602 7.92796 17.064 6.57196 17.064C6.33796 17.064 6.10996 17.052 5.88196 17.022C7.14796 17.85 8.67196 18.33 10.304 18.33Z" fill="white"/>
</svg>
