<svg width="25" height="24" viewBox="0 0 25 24" fill="none" xmlns="http://www.w3.org/2000/svg">
<path d="M21.557 7.18078C21.5663 7.39198 21.5663 7.59358 21.5663 7.80478C21.5755 14.208 16.8711 21.6 8.26781 21.6C5.73036 21.6 3.23921 20.8416 1.09998 19.4208C1.47041 19.4688 1.84084 19.488 2.21127 19.488C4.31346 19.488 6.36009 18.7584 8.01777 17.4048C6.01744 17.3664 4.2579 16.0128 3.64669 14.0352C4.3505 14.1792 5.07284 14.1504 5.75814 13.9488C3.58186 13.5072 2.01679 11.52 2.00753 9.20639C2.00753 9.18719 2.00753 9.16799 2.00753 9.14879C2.65578 9.52319 3.38738 9.73439 4.12825 9.75359C2.08162 8.33278 1.44262 5.50077 2.68357 3.28317C5.06358 6.31678 8.56415 8.15038 12.324 8.35198C11.9443 6.67198 12.4629 4.90557 13.6761 3.71517C15.556 1.88156 18.5195 1.97756 20.2975 3.92637C21.344 3.71517 22.3534 3.31197 23.2702 2.74556C22.9183 3.86877 22.1867 4.81917 21.2144 5.42397C22.1404 5.30877 23.048 5.04957 23.9 4.66557C23.2702 5.64477 22.4738 6.48958 21.557 7.18078Z" fill="black"/>
</svg>
