<svg width="215" height="215" viewBox="0 0 215 215" fill="none" xmlns="http://www.w3.org/2000/svg">
<path d="M214 107.601C214.033 130.399 206.73 152.601 193.174 170.914C192.804 171.43 192.417 171.931 192.015 172.431C191.612 172.931 191.548 173.044 191.322 173.318C190.533 174.335 189.711 175.335 188.89 176.319C188.069 177.303 187.279 178.255 186.377 179.191C185.814 179.82 185.25 180.45 184.654 181.063L182.866 182.886L181.046 184.677L180.128 185.516C168.702 196.153 155.079 204.141 140.225 208.913C125.372 213.685 109.652 215.124 94.1813 213.127C78.7105 211.131 63.868 205.748 50.7067 197.361C37.5455 188.973 26.388 177.787 18.0261 164.596C9.6641 151.405 4.30252 136.532 2.32174 121.033C0.340964 105.533 1.78953 89.7869 6.56466 74.911C11.3398 60.0351 19.3245 46.3943 29.9522 34.9563C40.5799 23.5183 53.5901 14.5635 68.0598 8.72719V8.72719C80.6477 3.64951 94.0954 1.05275 107.665 1.0793C109.018 1.0793 110.355 1.0793 111.708 1.17611C118.336 1.4069 124.927 2.27135 131.39 3.75768V3.75768C139.952 5.7191 148.24 8.73221 156.065 12.7286V12.7286C173.511 21.6585 188.155 35.2445 198.378 51.9865C208.602 68.7284 214.008 87.975 214 107.601V107.601Z" stroke="#1D1D1D" stroke-width="1.6" stroke-miterlimit="10"/>
<path d="M25.1035 142.841L30.0482 138C30.3703 138.339 26.392 141.582 26.5531 141.744L29.0657 139.307" stroke="#1D1D1D" stroke-width="0.450589" stroke-linecap="round" stroke-linejoin="round"/>
<path d="M80.9446 120.8C81.3956 121.252 88.9978 112.378 89.3038 112.733C89.6098 113.088 82.4747 118.719 83.0867 119.348C84.7757 117.883 86.3885 116.332 87.9187 114.701C87.9187 114.701 83.6988 118.46 83.9243 118.702C83.9243 118.702 87.0489 115.201 87.2744 115.475" stroke="#1D1D1D" stroke-width="0.450589" stroke-linecap="round" stroke-linejoin="round"/>
<path d="M118.327 125.141C119.165 126.012 127.685 114.685 128.394 115.46C129.103 116.234 118.537 125.06 118.537 125.06C119.471 126.028 128.684 115.089 128.748 115.169C129.699 116.154 118.488 124.092 119.455 125.108C119.664 125.318 128.909 115.75 129.022 115.847C129.135 115.944 120.566 125.334 120.566 125.334L129.811 116.331C130.037 116.557 121.21 125.56 121.758 126.012C122.306 126.464 130.359 117.703 130.359 117.703C130.359 117.703 121.484 126.012 122.338 126.835C123.192 127.658 130.391 118.074 130.842 118.606L123.401 127.851C123.401 127.851 131.261 119.574 131.599 119.929C131.599 119.929 123.385 127.997 123.981 128.545C124.577 129.094 132.131 120.671 132.131 120.671L124.609 129.481C125.14 130.03 131.567 121.51 132.195 122.156L125.752 129.868C126.058 130.175 132.437 123.414 132.437 123.414C132.437 123.414 129.36 128.255 129.537 128.4C129.715 128.545 131.39 126.609 131.39 126.609" stroke="#1D1D1D" stroke-width="0.450589" stroke-linecap="round" stroke-linejoin="round"/>
<path d="M127.476 109.619C127.476 109.619 141.972 92.5161 143.486 94.1296L131.293 107.957C131.293 107.957 141.118 96.5337 142.084 97.5179C143.051 98.5021 132.421 107.651 132.421 107.651C132.855 108.102 140.909 99.4379 140.909 99.4379C140.909 99.4379 133.774 106.553 134.096 106.86L139.991 101.148C139.991 101.148 133.983 106.295 134.386 106.65C134.788 107.005 139.588 101.616 139.588 101.616L134.482 106.65C134.885 107.07 138.96 102.068 139.089 102.197L135.594 105.892L138.348 103.213" stroke="#1D1D1D" stroke-width="0.450589" stroke-linecap="round" stroke-linejoin="round"/>
<path d="M140.973 68.6529L151.233 58.73C151.555 59.0688 142.391 68.782 142.391 68.782L150.766 60.7146C151.217 61.1986 142.874 68.9433 142.874 68.9433C143.518 69.6048 150.154 60.5209 150.927 61.2309L143.18 69.0562C143.437 69.3305 150.154 61.2631 150.669 61.7956C150.669 61.7956 143.083 68.7981 143.727 69.4596C143.888 69.6371 149.606 63.3445 149.816 63.5704L144.259 70.2502C144.565 70.5406 147.641 67.0233 147.641 67.0233C146.868 68.3189 146.012 69.5638 145.08 70.7504C145.354 71.0247 147.77 68.1527 147.77 68.1527C147.77 68.1527 145.016 70.7827 145.08 70.8472C145.145 70.9117 147.512 67.9107 147.802 68.2172C148.092 68.5238 145.161 71.1538 145.161 71.1538C145.161 71.1538 147.915 68.3302 147.996 68.4109C147.243 69.4719 146.59 70.6008 146.047 71.783C146.159 71.896 148.978 68.7658 149.059 68.8626C149.139 68.9594 146.063 71.7992 146.063 71.7992C146.063 71.7992 148.688 68.8304 148.898 69.0562C149.107 69.2821 146.256 71.5571 146.417 71.7185L149.107 69.1208C149.107 69.1208 146.578 71.8153 146.626 71.8798C146.675 71.9444 149.397 69.2015 149.397 69.2015C149.638 69.4435 147.11 72.4284 147.126 72.4284C147.142 72.4284 149.928 69.5403 149.977 69.5403C150.025 69.5403 147.319 73.0254 147.432 73.1383C147.545 73.2513 150.009 70.1211 150.267 70.3793C149.371 71.585 148.579 72.8642 147.899 74.2032C148.076 74.3807 150.879 70.8633 151.12 71.1054C150.216 72.735 149.181 74.2889 148.028 75.7522C148.285 76.0265 151.732 72.1703 151.732 72.1703C150.704 73.5509 149.59 74.8657 148.398 76.1071C148.398 76.1071 151.619 72.9931 151.619 73.0254L148.398 76.5267C148.688 76.8171 151.491 72.9286 151.797 73.2997L148.269 76.7848C148.414 76.93 151.587 73.0899 151.829 73.3481L148.608 76.5751C148.608 76.5751 151.442 73.2352 151.829 73.5417C152.215 73.8483 149.542 76.9462 149.703 77.0914C149.864 77.2366 150.701 75.9619 150.782 76.0587L149.751 77.1075C149.751 77.1075 150.879 75.9458 150.911 75.9781" stroke="#1D1D1D" stroke-width="0.450589" stroke-linecap="round" stroke-linejoin="round"/>
<path d="M92.219 108.925L151.362 51.7915C157.192 57.7936 93.8296 108.263 93.8296 108.263C97.6146 112.184 147.448 48.742 151.265 52.7112C153.294 54.8248 92.5572 105.956 94.5544 107.973C94.5544 107.973 149.88 51.2107 151.507 52.8887C155.147 56.6319 96.455 108.263 96.616 108.425L151.716 55.1798L98.3555 108.425C98.9032 108.989 147.802 53.405 151.394 57.1321L98.0978 108.763C102.35 113.104 151.813 56.8094 151.813 56.8094C151.813 56.8094 96.1328 106.101 98.8226 108.876C101.126 111.28 147.609 54.0181 151.426 57.9873C154.647 61.424 95.1987 104.778 100.047 109.715C100.047 109.715 135.722 69.5075 138.573 72.4602C139.314 73.2346 101.384 110.861 101.384 110.861C101.384 110.861 134.402 71.5889 138.058 75.3644C138.235 75.5419 101.545 110.958 101.545 110.958C103.155 112.571 135.883 73.396 138.042 75.6387C138.138 75.7355 101.77 110.893 101.77 110.893C101.77 110.893 136.946 74.719 138.026 75.8323C138.026 75.8323 101.142 110.813 101.673 111.329C102.527 112.249 135.706 73.5735 138.138 76.1066C140.57 78.6398 100.755 110.135 102.704 112.2C103.397 112.91 137.51 76.8166 138.364 77.704C139.701 79.0916 103.026 113.362 103.187 113.539C104.202 114.588 137.607 76.4293 139.54 78.3655C141.472 80.3017 102.124 113.104 103.493 114.507C103.493 114.507 137.8 76.2034 140.345 78.8495C140.264 78.8495 100.272 111.49 103.493 114.798L140.538 79.0432C143.55 82.1733 102.624 114.233 103.638 115.298C103.638 115.298 138.299 75.9937 141.182 78.9786L104.202 117.073L142.487 79.9628C143.164 80.6566 103.735 117.557 104.17 118.009L142.986 80.463C146.562 84.1902 104.331 117.928 104.331 117.928C108.116 121.881 143.276 80.3339 143.276 80.3339L104.524 118.541C106.135 120.155 141.295 78.2042 143.679 80.6728C143.679 80.6728 103.107 117.186 104.718 118.864C104.718 118.864 141.859 79.1884 143.711 81.1245L104.782 119.412C104.782 119.412 140.313 77.6072 144.033 81.4472C144.275 81.6893 105.104 119.558 105.104 119.558L144.307 81.6086C145.741 83.1091 102.43 116.492 105.458 119.574C108.68 122.962 144.581 81.7215 144.581 81.7215C144.581 81.7215 103.703 118.364 105.475 120.203L144.839 82.1249C144.839 82.1249 102.221 116.589 106.183 120.671C106.183 120.671 141.488 79.0593 145.209 82.9155C148.93 86.7717 107.44 120.832 107.44 120.832C110.999 124.527 145.29 84.2224 145.29 84.2224C145.29 84.2224 105.942 118.331 108.889 121.332C108.889 121.332 143.631 83.7868 145.596 85.8359C149.284 89.6437 109.421 122.026 109.421 122.026C111.418 124.108 144.855 86.804 145.29 87.3364C148.897 91.0636 110.339 122.397 110.339 122.397C111.225 123.317 144.162 87.4655 145.257 88.6111L111.015 122.785C113.351 125.205 143.647 88.724 144.839 90.0148C147.867 93.145 110.033 121.768 111.643 123.414C113.254 125.06 141.134 88.2723 144.42 91.6767C144.597 91.8703 112.4 123.849 112.4 123.849C112.4 123.849 142.149 92.3544 143.486 93.7419C143.486 93.7419 110.178 122.058 113.19 125.189L126.075 112.668C126.348 112.958 112.996 125.382 113.19 125.576L126.381 112.813C126.816 113.265 114.124 127.157 114.124 127.157C114.124 127.157 127.138 114.04 127.395 114.249C127.395 114.249 113.012 127.335 114.414 128.771C114.655 129.013 117.055 126.221 117.055 126.221C117.313 126.496 114.397 129.674 114.397 129.674L116.83 127.625L114.768 130.852C114.768 130.852 116.701 128.625 116.878 128.803C117.055 128.98 114.623 132.53 114.897 132.804C114.897 132.804 117.023 130.416 117.184 130.594C117.345 130.771 115.75 134.143 115.847 134.24C116.583 133.433 117.368 132.674 118.199 131.965C118.327 132.094 116.298 135.079 116.362 135.192C116.427 135.305 118.714 132.707 118.827 132.82C118.94 132.933 116.379 135.047 116.507 135.128C116.636 135.208 118.843 132.869 118.843 132.869C118.843 132.869 116.379 135.176 116.54 135.418C116.701 135.66 119.213 132.837 119.213 132.837C118.452 133.757 117.634 134.63 116.765 135.45C117.007 135.709 118.988 132.853 119.213 133.079C119.439 133.304 117.442 136.128 117.699 136.402C117.957 136.677 119.922 133.869 120.115 134.063L118.505 136.935L120.711 134.789C120.921 134.999 119.004 137.338 119.101 137.387C120.033 136.609 120.905 135.762 121.71 134.853C121.823 134.966 119.068 137.499 119.149 137.58C119.229 137.661 121.806 134.999 121.806 134.999C121.806 134.999 119.6 138.597 119.777 138.726L122.515 136.08C122.773 136.354 119.761 139.307 119.761 139.307C120.019 139.581 122.58 136.193 122.773 136.402C122.071 137.821 121.292 139.2 120.437 140.533L123.916 137.306L121.452 141.888L125.108 138.355C124.456 139.682 123.691 140.95 122.821 142.146L125.446 139.613C125.446 139.613 123.304 142.227 123.53 142.469C123.755 142.711 125.753 140 125.914 140.162C126.075 140.323 123.417 142.582 123.643 142.824C123.868 143.066 125.897 140.63 125.897 140.63C125.897 140.63 123.804 142.598 123.852 142.646L125.704 140.856L124.834 143.066L125.785 142.13" stroke="#1D1D1D" stroke-width="0.450589" stroke-linecap="round" stroke-linejoin="round"/>
<path d="M149.316 45.0468L151.136 43.2881C150.564 43.9258 150.027 44.5937 149.526 45.2888L151.458 43.401C151.458 43.401 149.429 45.3372 149.59 45.4663L151.652 43.4656C151.229 44.3743 150.89 45.3193 150.637 46.2892C150.814 46.4666 152.731 44.1271 152.795 44.1916L152.022 47.4186C152.022 47.4186 153.987 45.1275 154.18 45.3372L152.779 47.9188C152.924 48.064 154.857 45.9181 154.857 45.9181C154.857 45.9181 153.005 47.8381 153.246 48.0156L155.034 46.2408C155.227 46.4344 153.906 48.7578 153.906 48.7578C153.906 48.7578 155.34 47.2411 155.404 47.3056L155.034 49.4032L156 48.4835" stroke="#1D1D1D" stroke-width="0.450589" stroke-linecap="round" stroke-linejoin="round"/>
<path d="M142.616 33.6402C142.616 33.7209 146.014 30.1712 146.111 30.2681C146.208 30.3649 145.612 32.4301 145.692 32.5915C145.969 32.2769 146.27 31.9855 146.594 31.7202" stroke="#1D1D1D" stroke-width="0.450589" stroke-linecap="round" stroke-linejoin="round"/>
<path d="M146.514 25.6698C146.739 25.8957 150.347 21.4586 150.589 21.7329C150.589 21.7329 147.367 26.1377 147.641 26.4604C148.824 25.4558 149.943 24.378 150.991 23.2335L148.801 27.7189C149.59 26.8583 150.429 26.0448 151.313 25.2826C150.489 26.2561 149.725 27.28 149.026 28.3482L151.362 26.0893L149.606 29.3163L152.264 26.7347L149.977 30.1391C150.17 30.3166 152.618 27.3478 152.747 27.4608C152.876 27.5737 150.959 31.3331 150.959 31.3331C151.233 31.6074 153.778 28.6225 153.778 28.6225L150.943 31.6235C151.201 31.8817 153.939 28.7354 153.939 28.7354C154.18 28.9774 151.474 31.9624 151.474 31.9624L154.696 28.8968C155.002 29.2033 152.215 32.3012 152.521 32.6078C153.573 31.7131 154.568 30.7539 155.501 29.7358L152.505 33.0757C152.779 33.3661 155.533 29.7035 155.727 29.9294C155.92 30.1553 152.65 33.1564 152.86 33.3822L155.871 30.478C156.129 30.7684 153.713 33.947 153.713 33.947C154.617 32.9374 155.597 31.9989 156.645 31.1395C156.935 31.4299 154.502 34.8505 154.535 34.8828L157.547 31.9624C156.727 33.0448 155.974 34.1764 155.292 35.3507C155.292 35.3507 158.062 32.6723 158.062 32.6723C158.384 33.0111 155.694 36.9158 155.694 36.9158C155.694 36.9158 158.481 33.6888 158.755 33.947C158.15 35.2195 157.613 36.5228 157.144 37.8516C158.157 36.9656 159.125 36.0285 160.043 35.0441C159.894 36.0737 159.657 37.0885 159.334 38.0775C159.334 38.0775 160.51 36.7383 160.607 36.8512C160.703 36.9642 159.222 38.1904 159.35 38.3195L160.961 36.8351C160.961 36.8351 159.721 38.1097 159.737 38.1097C159.753 38.1097 160.929 36.9319 160.945 36.948C160.565 37.4145 160.151 37.8514 159.705 38.2549L160.977 37.0287C160.977 37.0287 161.444 38.2227 161.46 38.2227" stroke="#1D1D1D" stroke-width="0.450589" stroke-linecap="round" stroke-linejoin="round"/>
<path d="M37.4573 86.6429C42.6274 92.0158 98.0173 16.1339 103.977 22.3136L38.5042 86.9495C44.9467 93.6616 104.073 21.2487 105.217 22.4104C105.217 22.4104 38.4237 87.4335 39.3095 88.3694C41.7577 90.9187 107.327 22.5879 107.327 22.5879C112.127 27.5896 39.5511 88.4984 39.5511 88.4984C44.077 93.1937 102.124 17.102 107.536 22.7492L40.4692 89.886C40.4692 89.886 109.276 22.0715 109.936 22.7492L41.2584 91.5318C45.9615 96.3722 111.708 21.9909 112.4 22.7008L42.0798 92.4999C45.0595 95.5816 114.381 22.5394 114.381 22.5394C116.089 24.3627 42.7724 94.0327 42.7724 94.0327L116.862 22.3136C119.632 25.1856 43.014 94.0488 43.014 94.0488L117.103 22.3136L43.2717 94.2424C46.042 97.1306 117.78 22.1683 117.78 22.1683C125.076 29.7194 43.4327 94.7749 43.4327 94.7749C44.0609 95.3557 116.701 19.5222 118.843 21.765C118.843 21.765 42.112 93.5809 43.7066 95.2428C49.9397 101.697 114.478 16.0371 119.841 21.6036L43.7871 95.5655L120.711 21.1357C124.255 24.7983 44.0287 96.0979 44.8662 96.9692C50.3424 102.584 124.319 18.9253 124.931 19.5222C124.931 19.5222 42.7885 94.0972 45.8004 97.2919L127.492 18.2315C134.208 25.1856 44.9468 96.4206 46.1869 97.7114C53.7569 105.601 129.264 17.4086 129.264 17.4086C129.65 17.7958 46.5574 98.6634 46.5574 98.6634C46.5574 98.6634 127.379 12.6488 131.277 16.6825L47.6204 99.099C47.6204 99.099 130.971 12.4713 133.967 15.5692C134.643 16.2953 47.7654 99.8089 47.7654 99.8089C49.5693 101.697 133.983 13.1651 135.61 14.8432L47.9264 99.7605C47.9264 99.7605 127.46 6.7919 135.449 15.069C137.832 17.5377 41.4839 92.9032 48.3774 100.051L136.64 14.6818C144.839 23.1848 49.3599 100.196 49.5371 100.438C50.0042 100.922 138.589 14.2946 138.589 14.2946C141.521 17.344 48.5546 99.2765 50.3424 101.18L140.248 14.23C140.248 14.23 50.0525 100.487 50.9222 101.358C50.9222 101.358 133.371 6.90484 140.715 14.5205C140.715 14.5205 51.2121 100.809 51.4376 101.035L140.619 14.7948L52.0336 101.616C60.8921 110.813 141.569 14.9884 141.569 14.9884L52.8228 102.019C52.8228 102.019 140.538 12.9393 142.632 15.1497C144.243 16.8923 53.0322 101.89 53.0322 101.89C53.0322 101.89 139.83 12.2616 142.648 15.1981L54.9971 102.487L144.533 15.8919C148.736 20.2644 56.3823 103.02 56.3823 103.02L145.886 16.4082C149.912 20.5871 51.7759 97.663 57.1393 103.23C57.1393 103.23 142.616 13.1974 146.272 17.0052C149.928 20.813 55.8991 100.325 58.8305 103.423C65.5952 110.442 143.164 12.8747 147.641 17.5054C153.101 23.1687 55.577 100.374 58.6855 103.601L147.464 17.6506C147.464 17.6506 54.8522 99.2442 59.217 103.778C60.3767 105.037 147.995 17.9088 147.995 17.9088C156.129 26.3473 59.4908 103.714 59.4908 103.714L148.076 18.1024L59.8613 103.81C59.8613 103.81 148.124 17.8281 148.446 18.1347C148.446 18.1347 57.8158 100.906 61.4719 104.698C61.4719 104.698 147.883 17.5699 149.638 19.3932C149.638 19.3932 61.3431 104.246 61.9873 104.908C68.7842 111.942 146.659 16.6825 149.799 19.9417C149.799 19.9417 60.8277 102.665 63.4691 105.456C69.4446 111.652 150.444 21.3132 150.444 21.3132C150.444 21.3132 58.7499 99.1635 65.2086 105.859L145.193 28.4125C145.193 28.4125 62.245 103.423 65.1281 106.424L145.37 28.7997C145.37 28.7997 62.7443 103.197 66.4488 107.053C67.383 108.038 138.622 22.5233 145.966 30.1389C147.995 32.2365 61.8424 102.165 67.0447 107.489L141.182 35.7377C141.182 35.7377 65.5629 106.65 67.3024 108.393C67.3024 108.393 133.339 29.8485 140.635 37.3996L68.0594 109.958C68.0594 109.958 136.898 36.3186 140.409 39.965C146.562 46.3383 64.7093 109.474 67.7695 112.652L141.021 41.7882C143.76 44.5796 62.3739 107.295 68.2205 113.362C68.4621 113.62 139.54 38.3515 142.535 41.4817C145.531 44.6118 68.301 114.717 68.301 114.717C68.301 114.717 144.5 40.6104 144.694 40.8202C146.417 42.595 65.1925 112.233 68.2849 115.427C68.2849 115.427 141.456 35.8668 145.837 40.4007L68.4299 115.508L146.079 40.4007C146.079 40.4007 63.2275 111.491 68.6715 117.138C74.6469 123.317 147.335 41.0299 147.335 41.0299L68.7681 117.138C76.3864 125.044 147.416 41.046 147.416 41.046C154.486 48.3874 66.4488 115.847 69.2513 118.783L149.059 41.5785C149.059 41.5785 68.5265 118.719 69.4285 119.671C69.4285 119.671 146.449 38.9969 149.558 42.2239C149.558 42.2239 64.0328 115.476 69.7023 121.284C76.9502 128.803 143.389 35.1246 150.798 42.8209C150.798 42.8209 67.544 119.09 70.266 121.881C70.266 121.881 148.495 45.4347 148.881 45.8381C153.617 50.7592 62.8571 114.863 70.717 123.011L149.381 46.9514C150.379 48.0001 70.878 124.398 71.2807 124.802C79.2212 133.047 146.578 44.6764 150.202 48.4519L71.6834 126.835L150.991 50.1783C152.328 51.5821 66.8998 122.785 72.3437 128.368L90.6084 110.7C90.6084 110.7 70.9586 128.045 72.7303 129.868L79.8976 122.946C79.8976 122.946 72.6981 130.626 73.4551 131.32C73.7611 131.659 79.6721 124.221 80.2198 124.786C80.2198 124.786 73.1491 131.562 73.5034 131.917C73.5034 131.917 80.2359 125.463 80.252 125.463C80.5741 125.802 74.1638 133.095 74.2121 133.127L80.3969 127.141C80.8962 127.658 74.2282 133.805 74.2282 133.805C74.2282 133.805 79.8815 127.093 80.4936 127.738L74.8563 134.741L79.9782 129.561L76.2093 134.079C77.2155 133.208 78.1727 132.282 79.0762 131.304" stroke="#1D1D1D" stroke-width="0.450589" stroke-linecap="round" stroke-linejoin="round"/>
<path d="M23.3641 85.9813L81.4277 29.8161C84.1658 32.6397 24.0245 86.1588 24.0245 86.1588C24.0245 86.1588 76.5636 23.4751 82.4907 29.687C82.4907 29.687 21.2864 84.2871 24.5077 87.7722C28.5826 91.9996 86.2274 28.0735 86.2274 28.0735C87.7414 29.687 24.4433 89.6277 24.7171 89.9343L90.2701 26.4762L24.9103 90.2409C24.9103 90.2409 88.2407 23.2976 91.0754 26.2342C97.3086 32.6881 24.8137 91.451 24.8137 91.451C29.098 95.8881 92.9921 25.5081 92.9921 25.5081C94.4095 26.9764 23.1386 90.5313 25.0875 92.5481C25.0875 92.5481 91.2043 20.0223 95.4725 24.4593C99.7407 28.8964 20.5938 89.6439 25.0231 94.2584C31.4657 100.954 98.0334 23.6365 98.0334 23.6365C98.0334 23.6365 24.7976 95.5654 25.3774 96.1623C26.7626 97.5983 97.0348 17.1019 101.867 22.1843C101.867 22.1843 23.9601 96.0817 25.5224 97.7113C28.3249 100.599 103.493 22.1198 103.59 22.1843C105.539 24.1851 20.3522 92.9031 25.619 98.3728L36.8935 87.4334C37.4089 87.9659 25.619 99.3248 25.619 99.3248L36.5553 88.7403C37.0868 89.2889 25.1681 101.148 25.4096 101.406C25.4096 101.406 36.3298 90.7572 36.3781 90.8056C36.4264 90.854 25.3291 101.971 25.4741 102.1C25.619 102.229 35.7983 91.1767 36.2654 91.6607C36.2654 91.6607 25.1036 102.81 25.5546 103.278C25.6512 103.375 36.1687 92.9999 36.1687 92.9999C36.9579 93.8067 25.458 104.504 25.9573 105.036C25.9573 105.036 35.6211 93.5808 36.6841 94.6779C37.0546 95.0652 25.7157 105.424 25.7157 105.424L36.4908 95.0168L26.0217 105.795C27.0042 106.811 36.3942 95.7428 36.3942 95.759L26.0378 107.231C26.9559 108.199 36.5231 96.1623 36.9901 96.6302C37.4572 97.0982 26.0217 107.328 26.0217 107.328L36.8935 96.8077C36.8935 96.8077 25.619 108.699 25.764 108.941C25.764 108.941 36.056 97.1143 37.0385 98.0824L26.0217 109.264C26.1989 109.441 37.2962 98.4212 37.2962 98.4212C37.2962 98.4212 25.9251 110.587 26.2472 110.91C26.2472 110.91 37.5217 99.2764 37.8438 99.6152C38.1659 99.954 26.1828 112.313 26.1828 112.313C27.3424 113.523 38.1498 100.212 38.4236 100.486C39.3095 101.406 25.5385 112.297 26.5049 113.394C26.7304 113.62 39.084 100.099 39.6477 100.68C39.6477 100.68 25.2647 114.233 26.3921 115.411C26.3921 115.411 40.8879 100.341 41.4516 100.89C42.2247 101.697 26.4244 115.524 26.6337 115.734C26.8431 115.944 41.8382 100.841 41.9348 100.938L27.0847 116.896C27.0847 116.896 41.967 99.3086 43.5616 100.954C44.2863 101.713 27.0686 117.702 27.0686 117.702C27.0686 117.702 44.1092 100.745 44.2863 100.922C45.7037 102.39 25.5707 115.863 27.2136 117.573C27.6645 118.025 44.5118 100.841 44.5118 100.841L29.4846 117.525L45.591 102.003L29.2913 117.799L45.3977 102.213L31.208 117.525C32.3998 118.751 44.6246 101.745 46.0258 103.197C46.2996 103.504 32.1582 116.815 32.3837 117.041L46.5251 103.423C46.5251 103.423 32.6253 115.556 33.7689 116.67L46.654 104.214C47.2177 104.794 37.6183 115.282 37.6183 115.282C38.021 115.702 46.9922 106.214 46.9922 106.214L40.0665 114.04C40.2275 114.201 47.1533 107.182 47.1533 107.182L44.0286 111.603L45.9614 109.748" stroke="#1D1D1D" stroke-width="0.450589" stroke-linecap="round" stroke-linejoin="round"/>
<path d="M30.306 34.6245L35.1379 29.9616L28.1155 37.0125C28.2444 37.1254 35.6533 29.7195 35.6533 29.7195C35.6533 29.7195 20.0623 43.7245 21.5602 45.2089C23.0581 46.6933 37.1995 27.9286 38.2786 29.0741C38.2786 29.0741 16.1968 48.7909 17.9524 50.6141C17.9524 50.6141 40.1792 26.9605 41.2422 28.0254C43.5454 30.4133 15.8908 53.5183 16.0679 53.6958C16.2451 53.8733 41.4194 24.9759 43.4488 27.1541C45.9936 29.7195 13.0399 58.9719 13.0399 58.9719C15.0371 61.0533 46.8634 26.2506 46.8634 26.2506C49.6337 29.2032 10.0763 58.4072 12.2507 60.6983L48.2968 25.8311C52.0657 29.7518 11.1072 62.9411 11.1072 62.9411L50.0041 25.2341C50.0041 25.2341 9.30324 64.8772 10.0763 65.6356C11.542 67.2007 52.7744 24.3628 52.7744 24.3628C52.7744 24.3628 6.40409 62.8765 9.75422 66.3132C11.2682 67.9267 52.0818 22.9429 53.2415 24.1853C53.2415 24.1853 7.90198 66.9748 8.86837 67.9913C10.3663 69.6047 54.5944 23.7658 54.5944 23.7658C59.0881 28.4288 8.59456 69.3466 8.59456 69.3466C8.59456 69.3466 52.5328 20.0064 55.9474 23.5399C55.9474 23.5399 5.46992 68.1687 8.01473 70.8148C8.01473 70.8148 53.1126 19.5062 56.9782 23.4431C56.9782 23.4431 6.09807 72.7672 6.85507 73.5578C6.85507 73.5578 54.9327 18.5381 59.1848 22.9429C60.0062 23.8303 4.1653 73.0576 6.32356 75.2842L60.8276 22.5557C63.92 25.7827 1.92651 72.2347 6.06585 76.5427C9.89918 80.5118 61.9389 21.8135 62.2772 22.1685C65.9333 25.9763 2.53855 76.1393 5.24443 78.9306C5.24443 78.9306 62.2772 20.2161 64.0489 22.0555C65.8206 23.8949 4.69681 81.7542 4.69681 81.7542C9.49652 86.7721 65.7239 22.7493 65.7239 22.7493L3.89149 84.594C3.89149 84.594 62.2128 19.8935 66.336 24.1692C66.336 24.1692 -1.69743 79.2211 3.71432 84.836C6.4363 87.6596 62.7604 20.2968 66.4326 24.1692L3.44051 87.0948C3.44051 87.0948 62.7282 23.4592 65.8689 26.7023L2.78015 89.7571C4.39079 91.3706 64.5643 30.0584 64.5643 30.0584C64.5643 30.0584 0.686316 89.7087 2.73183 91.8223C2.73183 91.8223 58.8948 25.2502 64.9992 31.5912C71.1035 37.9321 0.944019 92.9195 2.34528 94.3716C4.9223 97.05 67.399 31.446 67.399 31.446L2.36138 94.3716C7.64428 99.8736 67.5118 31.3653 67.5118 31.3653C69.4606 33.3983 1.73323 93.936 2.34528 94.5814C2.42581 94.5814 61.3591 24.8146 67.6889 31.3814C67.6889 31.3814 -0.71494 95.1945 1.6527 97.647C1.79766 97.8083 71.4417 30.139 71.4417 30.139C71.4417 30.139 -1.71354 94.8073 1.6527 98.2924L72.1987 30.0422C79.1567 37.2706 1.73323 99.7606 1.73323 99.7606C7.64428 105.876 71.5545 26.2828 74.5019 29.3484C74.5019 29.3484 0.927912 100.196 1.52385 100.874C5.87258 105.392 75.9193 28.9128 75.9193 28.9128C77.1917 30.2359 -1.14981 98.6635 1.6527 101.519C7.78924 107.876 73.4389 25.1695 76.8696 28.7353C83.5859 35.7701 1.58827 102.568 1.58827 102.568C7.64428 108.845 77.8843 28.7515 77.8843 28.7515C77.8843 28.7515 -0.650515 100.971 1.55606 103.262C1.55606 103.262 77.2561 27.5575 78.4963 28.816C83.296 33.8016 1.62049 103.73 1.62049 103.73C6.27524 108.57 79.0923 28.7837 79.0923 28.7837C84.4557 34.3502 1.26615 105.618 1.34668 105.698C1.94262 106.311 80.268 29.3646 80.268 29.3646C80.268 29.3646 -5.36969 100.358 1.37889 107.36L22.591 86.8528C22.591 86.8528 -0.13511 107.86 1.52385 109.571C1.52385 109.571 21.673 89.2408 22.0917 89.6764C22.1884 89.7732 0.299763 108.457 1.49164 109.7C1.49164 109.7 20.8193 88.4663 22.0434 89.8055L1.50774 110.861L21.9629 91.0801C22.3816 91.5158 1.02455 112.055 1.33057 112.459C1.42721 112.572 20.9804 91.2899 22.0595 92.4032C23.8795 94.291 1.81376 114.201 1.81376 114.201C1.81376 114.201 21.3669 94.5168 21.7535 94.8395C22.7521 95.9528 1.63659 116.073 1.63659 116.073C1.63659 116.073 21.3508 96.0658 21.8501 96.5176C22.3494 96.9693 -0.102897 116.17 1.68491 117.945C1.68491 117.945 19.8529 96.8241 21.6246 98.5828L1.79766 118.316C3.00564 119.558 21.7213 98.9539 21.7213 98.9539L1.87819 119.042C3.21502 120.429 21.528 99.3896 21.8501 99.68C22.1722 99.9704 2.11979 119.816 2.11979 119.816C3.98813 121.752 21.6891 100.89 21.6891 100.89C22.2528 101.471 0.750742 120.252 2.23253 121.736C3.71432 123.221 21.5602 103.004 21.5602 103.004C23.0581 104.537 0.621891 120.316 2.23253 122.027C2.32917 122.123 20.916 102.068 21.8501 103.036C23.5735 104.795 1.26615 121.446 2.29696 122.511C2.29696 122.511 21.2703 103.149 21.8179 103.633C22.8648 104.73 2.49023 123.785 2.49023 123.785C2.49023 123.785 20.8998 104.424 21.6568 105.246C21.6568 105.246 1.1534 123.624 2.81236 125.334C2.81236 125.334 20.2234 104.859 22.0434 106.731C22.7199 107.441 1.36279 124.108 3.19891 126.093C3.19891 126.093 20.6421 106.731 21.9307 107.989C22.285 108.264 3.18281 128.271 3.18281 128.271L22.0917 109.974L3.4244 128.529C3.4244 128.529 20.0945 108.619 21.979 110.571C21.979 110.571 3.31166 129.433 3.87538 129.933C4.79345 130.885 20.8676 110.377 22.4138 111.991C22.4138 111.991 4.22972 131.885 4.29415 131.966C5.72762 133.45 22.5266 114.33 22.5266 114.33C24.1372 115.944 4.80955 133.692 4.80955 133.692L22.9615 116.105C22.9615 116.105 3.1667 132.772 4.87398 134.547C6.14638 135.854 22.9615 116.702 23.1386 116.896C24.5721 118.429 4.9223 134.983 4.95451 134.999C4.98672 135.015 22.6715 116.67 23.2836 117.251C24.7654 118.864 4.76123 135.209 4.76123 135.209C5.29275 135.773 22.0917 116.315 23.1547 117.461C23.1547 117.428 3.44051 134.079 5.05115 135.693C5.59877 136.258 23.5413 117.799 23.5413 117.799L4.97062 135.773C4.97062 135.773 23.042 117.025 23.6701 117.686L5.24443 135.838C6.11417 136.742 22.7199 116.944 23.7185 117.977C24.7171 119.009 3.98813 134.87 5.24443 136.064L23.8151 117.945C25.6029 119.865 4.27804 134.902 5.37328 136.032C6.46851 137.161 23.0903 117.348 23.8473 118.17C23.8473 118.17 5.4216 137 5.87258 137.532C6.64568 138.274 24.3949 119.558 24.3949 119.558C26.2955 121.51 5.85647 138.92 5.85647 138.92L25.1841 120.22C25.3774 120.429 6.62958 139.888 6.62958 139.888C6.62958 139.888 26.6176 120.429 26.682 120.526L6.64568 141.001L27.0525 121.252C27.9061 122.14 5.48602 139.985 7.06445 141.63C8.64288 143.276 26.5693 119.703 28.0994 121.284L7.01613 142.615C7.01613 142.615 27.1491 120.252 28.5826 121.752C28.5826 121.752 5.66319 141.001 7.64428 142.986C7.64428 142.986 27.9061 120.187 29.5007 121.833C29.5007 121.833 7.17719 142.808 7.61207 143.179C7.61207 143.179 29.0658 121.51 29.5329 121.978C29.5329 121.978 7.77313 144.47 8.24022 144.954C8.24022 144.954 29.549 121.075 31.1757 122.769C32.8025 124.463 8.22411 145.842 8.22411 145.842C8.22411 145.842 29.5812 120.8 31.7717 123.059C33.189 124.544 6.50073 144.309 8.28854 146.148C8.28854 146.148 31.5301 122.075 32.3193 122.898C34.542 125.189 8.80394 146.213 8.80394 146.213C8.80394 146.213 32.2871 122.333 32.8669 122.93C33.7366 123.834 8.7073 147.132 8.7073 147.132C10.7367 149.246 33.0602 122.349 33.6722 122.93C34.9768 124.269 9.19049 147.036 9.19049 147.036C9.62537 147.487 33.1568 121.978 34.091 122.946C34.091 122.946 7.82145 146.487 9.09386 147.81L35.0735 122.785C35.0735 122.785 7.20941 145.938 9.2066 148.004C9.2066 148.004 34.3487 122.769 34.8158 123.237C35.2829 123.705 9.35156 148.601 9.35156 148.601C11.687 151.118 33.495 122.785 34.7191 124.076C36.2331 125.689 7.56375 147.052 9.51262 149.069L34.9446 124.398C34.9446 124.398 7.33826 146.794 9.72201 149.278C10.479 150.069 34.9768 124.834 34.9768 124.834C36.9418 126.867 9.2066 148.278 10.1569 149.327C10.6562 149.843 33.3501 123.866 34.8641 125.447C34.8641 125.447 7.99862 147.1 10.173 149.359L34.5742 125.754C34.5742 125.754 9.93139 149.504 10.4146 149.956C12.0252 151.569 32.2226 123.947 34.6708 126.496C34.6708 126.496 9.85086 149.795 10.7689 150.698C12.1702 152.15 34.0427 128.109 34.0427 128.109C36.3781 130.691 9.27103 150.214 10.7689 151.828C12.5084 153.538 34.0105 129.239 34.0105 129.239L11.0588 152.263C11.0588 152.263 32.6253 129.368 33.6078 130.433L11.5581 152.602L32.9796 131.869C34.4292 133.386 10.7689 152.102 11.4454 152.844C13.3943 154.877 31.514 129.981 33.2373 131.772C33.2373 131.772 10.4307 152.747 11.993 154.361C13.5553 155.974 31.7233 135.241 31.7233 135.241C33.5756 137.161 11.1394 153.312 12.1219 154.312C12.1219 154.312 30.6925 134.354 31.6911 135.386L12.9272 155.829C12.9272 155.829 21.7374 146.148 22.3494 146.729C22.6232 146.987 13.2976 157.233 13.6681 157.636C13.6681 157.636 21.4475 148.939 22.0273 149.569L14.1996 157.814C14.1996 157.814 22.1561 149.859 22.2528 149.988C22.7843 150.537 13.0882 157.41 13.9258 158.265C14.1674 158.507 21.5924 150.198 21.8984 150.553C22.2045 150.908 14.1835 158.282 14.1835 158.282C14.6345 158.749 22.0756 150.65 22.0756 150.65C22.3172 150.892 14.0224 158.62 14.5217 159.153C14.6667 159.298 22.2206 151.699 22.2206 151.699C22.4944 151.989 14.9566 160.395 15.3109 160.766L22.5427 153.764L15.472 160.863C15.6653 161.073 22.4461 153.231 22.897 153.683C22.897 153.683 15.1015 160.411 15.7458 161.089C15.7458 161.089 22.4138 153.441 23.0098 154.07C23.0098 154.07 15.4398 160.379 15.9552 160.911C16.4706 161.444 22.9615 154.216 22.9615 154.216L16.1807 162.283C16.535 162.654 23.1225 155.571 23.1225 155.571C23.1225 155.571 16.4706 161.815 16.68 162.025C16.8894 162.235 23.3802 155.313 23.493 155.442L16.7766 162.493C17.0182 162.751 23.4608 156.039 23.4608 156.039L17.6947 163.735C17.6947 163.735 23.9762 157.168 24.2178 157.426C24.4594 157.685 18.1618 164.897 18.4839 165.236C18.5805 165.332 24.4271 159.443 24.4594 159.475L19.0959 166.752C19.0959 166.752 25.168 160.508 25.3452 160.702C25.7962 161.17 19.7724 166.962 19.7724 166.962C20.0301 167.22 25.1519 160.976 25.5546 161.379L20.159 167.72C20.6099 168.204 25.6996 162.154 25.7962 162.267C25.8928 162.38 20.2878 168.721 20.4972 168.866L26.3116 163.122C26.8431 163.687 20.6421 168.64 20.7388 168.737L26.4404 163.122L20.9643 169.092L26.4888 163.751C26.4888 163.751 21.4958 169.915 21.7696 170.205C21.7696 170.205 26.6015 164.639 27.0364 165.123C27.0364 165.123 21.8823 170.947 22.2045 171.318C22.5266 171.69 27.8256 165.881 27.8256 165.881L22.4622 171.625C22.6715 171.819 27.729 166.349 27.8095 166.446C28.2605 166.914 22.7521 171.56 22.8648 171.69C23.2675 172.093 28.2766 166.462 28.2766 166.462L23.3158 172.561C23.4124 172.658 28.7276 167.333 28.7276 167.333L23.7346 172.932C25.4387 171.461 27.0523 169.887 28.5665 168.221L23.6379 173.255L29.0497 168.011C29.2752 168.253 24.1372 173.142 24.3627 173.384C24.862 173.9 29.3235 168.543 29.3235 168.543C29.3235 168.543 24.1211 173.384 24.3788 173.593C24.6365 173.803 29.1141 168.947 29.2107 168.963C29.4684 169.237 24.5882 174.319 24.8298 174.578C25.0714 174.836 29.4846 169.85 29.6617 169.963C30.0161 170.35 25.3774 174.691 25.3774 174.691L29.855 170.366C30 170.512 25.764 175.417 26.0217 175.691C26.0217 175.691 30.0322 171.625 30.1288 171.722C30.2254 171.819 26.0378 176.03 26.2311 176.223L30.4026 172.206C30.8053 172.609 27.6162 177.353 27.6162 177.353C27.6162 177.353 30.5637 174.416 30.6442 174.416C30.7247 174.416 28.4376 178.289 28.6631 178.515C28.8886 178.74 31.2724 176.03 31.2724 176.03C31.2724 176.03 28.9047 179.128 29.1463 179.386L31.2401 177.353C30.7633 178.203 30.225 179.017 29.6295 179.789C29.6295 179.789 31.2401 177.966 31.3529 178.176C30.8269 178.958 30.3689 179.784 29.9839 180.644L31.7556 178.934C31.6699 179.946 31.481 180.946 31.1918 181.919C31.1918 181.919 32.0455 181.064 32.0455 181.08C32.0455 181.096 31.6589 182.08 31.6589 182.08L32.3354 181.451C32.3354 181.451 31.8522 182.306 31.9005 182.355L32.3354 181.935" stroke="#1D1D1D" stroke-width="0.450589" stroke-linecap="round" stroke-linejoin="round"/>
<path d="M160.075 73.4122C160.285 73.6058 163.522 69.6367 163.748 69.8626C163.973 70.0885 160.929 72.4441 161.154 72.67C161.938 72.0006 162.68 71.284 163.377 70.5241" stroke="#1D1D1D" stroke-width="0.450589" stroke-linecap="round" stroke-linejoin="round"/>
<path d="M155.871 72.8481C156.516 73.5096 163.57 63.9256 164.311 64.6839L154.535 75.4942C155.517 76.4945 164.456 65.539 164.633 65.7165C164.81 65.894 154.422 77.511 154.567 77.6079C154.712 77.7047 164.698 67.927 164.698 67.927C165.39 68.653 154.873 77.7692 154.873 77.7692C155.501 78.4307 163.667 67.7172 164.44 68.524L155.662 79.2213L157.369 77.6079L156.467 80.8348L157.273 80.0442L156.951 80.98C157.06 80.8916 157.162 80.7945 157.257 80.6896" stroke="#1D1D1D" stroke-width="0.450589" stroke-linecap="round" stroke-linejoin="round"/>
<path d="M159.866 56.9714L161.702 55.1965C161.517 55.6565 161.301 56.1038 161.058 56.5357C161.058 56.5357 161.605 55.8742 161.67 55.9387" stroke="#1D1D1D" stroke-width="0.450589" stroke-linecap="round" stroke-linejoin="round"/>
<path d="M156.177 52.5663L156.822 51.9371L156.242 52.7922L157.16 51.9048C157.052 52.5495 157.019 53.2048 157.063 53.8571C157.192 53.9862 158.159 52.6147 158.255 52.6954C158.023 53.4524 157.866 54.2307 157.788 55.0188C158.687 54.0103 159.662 53.0718 160.703 52.2113C161.026 52.5502 157.675 56.3903 157.691 56.4225C157.708 56.4548 161.058 52.5986 161.348 52.889C161.638 53.1794 157.756 58.6975 157.756 58.6975C157.998 58.9396 161.702 54.8897 161.702 54.8897C162.024 55.2124 157.933 58.988 158.191 59.2461L158.593 58.8589C158.564 59.309 158.477 59.7536 158.336 60.1819L159.576 58.988C159.576 58.988 159.318 60.908 159.334 60.9241C159.35 60.9403 160.945 59.4236 160.945 59.4236C160.945 59.4236 159.512 61.0371 159.64 61.1662C159.769 61.2952 160.993 59.7624 161.042 59.8108C161.09 59.8592 159.64 61.9406 159.689 61.989C159.737 62.0374 161.476 60.1497 161.476 60.1497L160.124 62.4569C160.124 62.4569 161.734 60.666 161.831 60.8435C161.23 61.6167 160.691 62.4368 160.22 63.2959C160.22 63.2959 161.831 61.392 162.008 61.5695C162.185 61.747 159.737 65.2483 159.785 65.2805C159.834 65.3128 162.475 62.2149 162.701 62.4569C162.926 62.699 159.044 66.9263 159.222 67.0876L163.313 63.0862C163.57 63.3766 158.593 67.9266 158.964 68.3139C159.334 68.7011 163.796 63.4734 163.796 63.5702C164.215 63.9897 157.627 70.1694 157.933 70.4759C157.933 70.4759 163.989 64.264 164.166 64.4415" stroke="#1D1D1D" stroke-width="0.450589" stroke-linecap="round" stroke-linejoin="round"/>
<path d="M136.206 140.985L136.592 140.63C136.372 141.182 136.119 141.721 135.835 142.243C135.835 142.243 138.638 138.903 138.96 139.226C138.96 139.226 135.191 144.373 135.465 144.647C136.399 145.632 149.542 131.013 149.542 131.013C149.912 131.401 135.787 146.551 135.867 146.616L149.993 132.933L136.157 146.874C136.157 146.874 149.332 132.917 149.928 133.547C151.233 134.902 136.528 147.632 136.528 147.632C137.365 148.52 150.089 134.515 150.089 134.515C150.363 134.805 137.204 147.648 137.51 148.036C137.51 148.036 149.912 134.466 150.701 135.289C151.491 136.112 137.607 147.955 138.428 148.794C139.54 149.956 151.12 136.532 151.12 136.532C151.12 136.532 140.184 149.165 140.28 149.262C140.377 149.359 151.297 137.112 152.038 137.968C152.038 137.968 141.392 149.488 141.617 149.73C141.843 149.972 152.489 139.194 152.489 139.21C152.763 139.484 141.553 149.101 142.262 149.843L151.185 141.227C151.555 141.614 142.922 150.117 142.922 150.117L150.524 142.76C150.846 143.082 144.082 150.537 144.291 150.698C144.5 150.859 149.928 145.196 149.944 145.212C149.96 145.228 144.967 150.666 145.112 150.746C145.257 150.827 149.509 146.099 149.703 146.309C148.545 147.708 147.469 149.174 146.481 150.698C146.481 150.698 149.123 148.132 149.123 148.132C149.123 148.132 147.802 150.02 147.883 150.101C147.963 150.182 148.769 149.036 148.865 149.133" stroke="#1D1D1D" stroke-width="0.450589" stroke-linecap="round" stroke-linejoin="round"/>
<path d="M145.596 130.852L147.206 129.352L145.209 131.466L147.689 129.062C147.689 129.062 142.858 134.515 143.405 135.064C143.953 135.612 148.35 129.578 148.704 129.949C148.704 129.949 141.939 136.064 142.487 136.629C142.487 136.629 148.736 129.965 149.042 130.288" stroke="#1D1D1D" stroke-width="0.450589" stroke-linecap="round" stroke-linejoin="round"/>
<path d="M190.903 140.533C191.161 140.808 194.221 136.709 194.527 137.016L192.272 140.566C192.514 140.808 194.801 138.016 194.849 138.065C194.897 138.113 193.238 141.743 193.238 141.776C194.018 141.102 194.76 140.386 195.461 139.63C195.622 139.791 193.512 141.872 193.512 141.872C193.512 141.872 195.332 139.791 195.493 139.952L194.785 142.905C194.785 142.905 196.911 140.856 196.911 140.872V143.26C196.911 143.26 198.135 142.066 198.135 142.082L197.603 142.921C197.828 142.739 198.038 142.539 198.231 142.324" stroke="#1D1D1D" stroke-width="0.450589" stroke-linecap="round" stroke-linejoin="round"/>
<path d="M172.171 135.515L173.218 134.514L172.058 135.918L173.669 134.305C173.669 134.305 171.962 137.29 172.219 137.532C172.477 137.774 174.571 134.918 174.732 135.095C174.148 136.112 173.689 137.196 173.363 138.322C174.171 137.432 175.044 136.601 175.972 135.837C176.198 136.063 174.265 138.758 174.281 138.774C174.297 138.79 176.955 135.741 177.18 135.983C176.691 137.455 176.037 138.868 175.231 140.194C175.65 140.63 182.286 133.369 182.286 133.369C182.817 133.934 175.618 139.936 176.053 140.388L183.623 133.046C184.364 133.821 176.778 140.742 176.778 140.742L185.056 132.675C185.056 132.675 178.71 140.291 178.839 140.42C178.968 140.549 187.247 132.465 187.247 132.465C187.247 132.465 178.839 139.823 179.467 140.533C179.741 140.823 187.343 132.465 187.52 132.691C187.698 132.917 179.95 140.533 180.128 140.759C180.305 140.984 188.455 132.691 188.455 132.691C189.179 133.45 181.448 140.484 181.448 140.484C181.448 140.484 188.696 132.32 189.276 132.917C189.276 132.917 181.835 140.226 182.238 140.63C182.238 140.63 189.212 132.562 189.84 133.272C189.84 133.272 182.721 141.517 182.817 141.63C182.914 141.743 190.452 132.917 191.112 133.562C191.257 133.708 182.785 142.178 183.059 142.55L192.079 133.756C192.61 134.305 182.415 142.711 183.123 143.437C183.832 144.163 192.787 133.901 192.916 133.966C193.56 134.627 183.011 144.147 183.478 144.647C183.478 144.647 193.319 134.531 193.625 134.837C193.931 135.144 186.619 143.937 186.619 143.937C187.231 144.583 194.06 136.741 194.06 136.741L187.891 143.469C187.891 143.469 189.502 141.63 189.663 141.759" stroke="#1D1D1D" stroke-width="0.450589" stroke-linecap="round" stroke-linejoin="round"/>
<path d="M187.247 148.1C187.247 148.1 188.036 147.245 188.084 147.293L186.78 149.907C186.941 150.052 188.39 148.294 188.39 148.294C188.39 148.294 186.248 152.473 186.296 152.521C187.141 151.794 187.947 151.024 188.712 150.214C188.89 150.407 186.393 152.795 186.393 152.795C186.393 152.795 188.487 150.423 188.664 150.617L186.28 155.183C186.28 155.183 189.405 152.101 189.502 152.134L185.572 158.329C185.894 158.652 190.291 153.666 190.404 153.715" stroke="#1D1D1D" stroke-width="0.450589" stroke-linecap="round" stroke-linejoin="round"/>
<path d="M172.751 153.441L173.734 152.489C173.285 153.284 172.779 154.044 172.22 154.764C172.22 154.764 174.958 151.537 175.264 151.828C175.264 151.828 166.18 161.509 166.727 162.122C167.275 162.735 177.051 152.134 177.051 152.134C177.325 152.409 165.97 162.832 166.019 162.88L177.051 152.199" stroke="#1D1D1D" stroke-width="0.450589" stroke-linecap="round" stroke-linejoin="round"/>
<path d="M145.37 177.336L147.351 175.432L145.112 177.884L148.334 174.835C148.334 174.835 144.404 179.578 144.855 180.046C145.306 180.514 151.152 173.076 151.603 173.592C151.603 173.592 144.516 181.079 145.161 181.66C145.161 181.66 154.663 171.543 155.131 171.979C156.049 172.931 145.467 182.563 145.467 182.644C145.467 182.725 158.754 167.574 159.866 168.72C160.977 169.865 145.628 184.854 145.628 184.854C147.593 186.887 178.662 152.907 178.662 152.907C181.271 155.618 143.904 183.322 145.982 185.484L179.097 153.44C182.479 156.941 145.902 186.597 145.902 186.597L179.725 153.892C179.725 153.892 145.902 187.097 146.53 187.775C147.738 189.017 180.353 154.973 180.353 154.973C180.353 154.973 144.049 185.225 146.691 187.968C147.85 189.178 179.451 154.376 180.401 155.36C180.401 155.36 145.902 188.114 146.578 188.872C147.689 190.034 180.675 155.892 180.675 155.892C183.897 159.265 147.077 189.404 147.077 189.404C147.077 189.404 178.453 154.166 180.901 156.699C180.901 156.699 145.467 188.307 147.222 190.179C147.222 190.179 178.372 154.682 181.046 157.49C181.046 157.49 146.481 191.518 146.981 192.018C146.981 192.018 178.952 155.425 181.771 158.361C182.334 158.926 146.191 191.228 147.593 192.68L182.576 158.797C184.46 160.749 146.981 189.195 149.509 191.825C152.038 194.455 183.333 158.7 183.51 158.91C185.491 160.959 151.442 188.581 152.908 190.098C152.908 190.098 189.373 152.553 190.5 153.73C191.628 154.908 158.867 186.661 158.867 186.661C161.428 189.308 191.08 155.489 191.08 155.489L163.184 184.532C163.184 184.532 190.017 154.763 191.918 156.731C191.918 156.731 160.752 181.998 163.232 184.58C164.472 185.871 190.355 154.957 192.046 156.699L167.178 182.725C167.178 182.725 191.483 156.667 192.771 158.006L169.932 182.208C170.528 182.838 193.56 159.361 193.56 159.361C193.56 159.361 171.285 181.45 172.026 182.208C172.026 182.208 192.288 158.184 194.575 160.475C196.862 162.766 172.606 182.902 173.105 183.402C173.975 184.306 194.801 162.427 194.801 162.427L173.17 183.402C174.941 185.242 194.849 162.427 194.849 162.427C195.509 163.089 173.057 183.257 173.266 183.402C173.476 183.547 192.691 160.378 194.801 162.556C194.801 162.556 173.492 184.031 174.265 184.822L194.913 164.847C194.913 164.847 173.766 183.983 174.748 185L194.623 165.767C196.508 167.735 176.069 185.258 176.069 185.258C177.551 186.871 193.544 166.88 194.285 167.655C194.285 167.655 176.568 185.403 176.665 185.613C177.663 186.645 194.076 168.768 194.076 168.768C194.366 169.058 176.906 184.903 177.551 185.58C178.855 186.936 192.836 169.317 193.576 170.075C194.962 171.511 178.404 185.661 178.404 185.661C179.483 186.791 191.982 172.527 191.982 172.527C191.982 172.527 178.726 185.258 179.097 185.645C179.097 185.645 189.421 175.319 189.598 175.496C190.21 176.142 179.934 185.467 179.934 185.467C180.385 185.919 187.086 178.562 187.086 178.562C187.569 179.062 180.031 185.597 180.047 185.613C180.063 185.629 184.879 180.885 184.879 180.885" stroke="#1D1D1D" stroke-width="0.450589" stroke-linecap="round" stroke-linejoin="round"/>
<path d="M34.0911 168.446L34.9286 167.623C34.7808 168.081 34.6032 168.528 34.3971 168.963C34.3971 168.963 38.617 163.929 39.1002 164.413C39.1002 164.413 34.9125 169.931 35.1863 170.237C35.4601 170.544 39.6317 165.929 39.6317 165.929C39.6317 165.929 36.0077 171.738 36.0399 171.77L40.3403 167.607L36.2815 172.077C37.5578 170.656 38.9301 169.324 40.3887 168.091C40.8235 168.543 36.3943 173.077 36.3943 173.077C36.6681 173.351 40.6786 168.93 40.6786 168.93C40.6786 168.93 36.6842 173.9 36.8292 174.029C36.9741 174.158 40.7913 169.705 41.0329 169.963C41.2745 170.221 36.6359 175.223 36.9419 175.546C37.2479 175.868 40.9846 171.641 40.9846 171.641C40.9846 171.641 37.7633 176.901 37.86 176.933C37.9566 176.966 41.2262 173.222 41.4517 173.448C41.6772 173.674 38.5847 177.756 38.6492 177.837C38.7136 177.917 41.9671 174.61 41.9832 174.61C41.9993 174.61 38.8747 177.917 39.084 178.143L42.0959 175.239C41.3029 176.441 40.4313 177.589 39.4867 178.676L42.1765 176.03C42.3053 176.159 40.2276 179.66 40.292 179.725C40.3565 179.789 42.6597 177.417 42.6758 177.433C42.6919 177.45 40.7752 179.983 40.8074 180.015C40.8396 180.047 42.708 178.014 42.7885 178.095C42.3648 178.851 41.9883 179.632 41.6611 180.435C41.6611 180.435 42.9818 179.144 42.9818 179.144C42.9818 179.144 43.2878 180.515 43.3361 180.564C43.3845 180.612 43.6261 180.225 43.6422 180.257" stroke="#1D1D1D" stroke-width="0.450589" stroke-linecap="round" stroke-linejoin="round"/>
<path d="M37.8437 164.041L38.3752 163.541L37.892 164.283L38.6168 163.59C38.6168 163.59 37.4732 165.058 37.6182 165.203C37.7631 165.348 38.4557 164.235 38.5362 164.316" stroke="#1D1D1D" stroke-width="0.450589" stroke-linecap="round" stroke-linejoin="round"/>
<path d="M80.7995 132.643L81.2666 132.191L80.8156 132.917L81.4599 132.304C81.4599 132.304 80.5579 134.644 80.7512 134.838C80.9445 135.031 81.7176 133.756 81.7981 133.821C81.3016 134.762 80.9177 135.759 80.6545 136.79C81.2392 136.138 81.8747 135.534 82.5551 134.983C82.7806 135.209 80.7834 137.968 80.7995 138C80.8156 138.032 83.0222 135.467 83.1994 135.66C82.8722 136.946 82.4022 138.191 81.7981 139.371C81.8947 139.484 83.5537 137.661 83.5537 137.661C83.5537 137.661 82.6034 138.758 82.6678 138.823L83.4893 138.032" stroke="#1D1D1D" stroke-width="0.450589" stroke-linecap="round" stroke-linejoin="round"/>
<path d="M106.215 140.533L106.94 139.807L106.473 140.549L107.359 139.694C107.375 140.237 107.445 140.778 107.568 141.307C107.665 141.42 108.422 140.339 108.502 140.404C108.489 140.997 108.522 141.59 108.599 142.179C108.964 141.759 109.363 141.371 109.791 141.017C109.71 141.605 109.57 142.184 109.372 142.743C109.372 142.743 110.741 141.13 110.854 141.307C110.775 142.268 110.602 143.22 110.339 144.147C110.962 143.659 111.544 143.119 112.078 142.534C112.207 142.663 110.902 144.421 110.999 144.534L112.61 142.921C112.803 143.114 111.337 145.228 111.337 145.228L113.399 143.227C113.399 143.227 112.448 145.793 112.497 145.825C113.291 145.133 114.049 144.401 114.768 143.631C114.768 143.631 112.69 145.777 112.851 145.954C113.012 146.132 114.848 143.905 114.913 143.953C114.977 144.002 113.012 146.551 113.077 146.6C113.141 146.648 115.541 144.212 115.541 144.212L113.93 146.842C113.93 146.842 115.944 144.567 116.105 144.744C115.45 145.561 114.863 146.43 114.349 147.342C114.349 147.342 116.121 145.131 116.378 145.373C116.636 145.615 114.623 148.6 114.671 148.6C114.72 148.6 117.119 145.809 117.329 146.035C117.538 146.261 115.235 149.084 115.348 149.262L117.989 146.47C118.15 146.648 115.525 149.472 115.734 149.697C115.944 149.923 118.746 146.745 118.762 146.777C118.778 146.809 116.153 150.601 116.378 150.762C116.604 150.924 119.6 147.406 119.745 147.535C119.89 147.664 117.909 151.65 117.909 151.65C118.166 151.924 120.888 148.762 120.888 148.762L118.859 152.747C118.859 152.747 122.08 149.165 122.306 149.407C122.306 149.407 118.456 152.634 118.778 152.924C119.1 153.215 122.257 149.133 122.467 149.359L120.083 153.537C121.19 152.265 122.402 151.088 123.707 150.02L121.082 154.602C121.178 154.699 125.124 150.682 125.124 150.682C125.124 150.682 122.531 155.054 122.644 155.054C122.757 155.054 126.316 150.682 126.735 151.101C127.154 151.521 123.868 155.942 123.948 155.942C125.329 154.776 126.631 153.52 127.846 152.182L124.013 155.925C124.351 156.28 127.911 152.15 127.911 152.15C127.911 152.15 124.11 155.942 124.142 155.974C124.174 156.006 127.54 151.876 127.943 152.295C126.971 153.904 126.084 155.563 125.285 157.265C125.285 157.265 129.264 153.537 129.264 153.537C128.028 154.767 126.886 156.089 125.849 157.491L129.215 154.264C129.505 154.554 127.154 157.813 127.154 157.813C127.154 157.813 129.312 155.522 129.409 155.619C129.505 155.716 127.798 158.12 127.798 158.136C128.375 157.64 128.913 157.101 129.409 156.522C129.409 156.522 128.217 157.862 128.265 157.91C128.313 157.958 129.086 157.006 129.135 157.055" stroke="#1D1D1D" stroke-width="0.450589" stroke-linecap="round" stroke-linejoin="round"/>
<path d="M133.451 156.667L134.917 155.248L132.759 157.619L135.352 155.054C135.352 155.054 134.096 157.7 134.321 157.926C134.547 158.152 136.608 155.377 136.769 155.554C136.454 156.36 136.233 157.199 136.109 158.055C136.827 157.242 137.608 156.486 138.444 155.796C138.606 155.958 137.478 158.023 137.478 158.039C137.478 158.055 139.669 155.554 139.846 155.748C139.853 156.597 139.783 157.445 139.636 158.281C139.765 158.426 141.94 156.054 141.94 156.054C141.94 156.054 140.715 157.991 140.812 158.103L143.019 155.974C143.196 156.167 141.73 158.281 141.73 158.281L144.372 155.716C144.372 155.716 143.824 157.926 143.84 157.958C144.816 157.11 145.746 156.211 146.627 155.264C146.627 155.264 144.211 157.684 144.404 157.878C144.597 158.071 146.981 155.312 146.981 155.393C146.981 155.474 145.016 158.055 145.08 158.103C145.145 158.152 148.108 155.167 148.108 155.167L146.498 157.797C146.498 157.797 149.026 154.925 149.236 155.135C148.556 155.975 147.947 156.871 147.416 157.813C147.416 157.813 149.832 155.054 150.073 155.215C150.073 155.215 148.608 158.136 148.64 158.168C148.672 158.2 151.716 154.667 151.974 154.941C152.232 155.215 149.928 157.958 150.041 158.071L153.552 154.683C153.713 154.844 151.04 157.716 151.249 157.91C151.458 158.103 155.034 154.296 155.034 154.312C155.034 154.328 152.666 157.878 152.811 158.023C152.956 158.168 156.822 153.925 156.935 154.038C157.047 154.15 156.5 156.797 156.5 156.797C156.757 157.071 159.479 153.908 159.479 153.908L159.173 155.522C159.173 155.522 160.124 154.425 160.204 154.522" stroke="#1D1D1D" stroke-width="0.450589" stroke-linecap="round" stroke-linejoin="round"/>
<path d="M67.4957 9.53474L68.5265 8.53438L66.9159 10.3253L69.1063 8.22782C69.1063 8.22782 66.2555 12.1647 66.6098 12.5358C66.9642 12.9069 71.5384 7.06612 71.8927 7.42108C71.8927 7.42108 68.6715 11.7775 68.9614 12.1163C68.9614 12.1163 74.5986 6.09803 74.8885 6.38846C75.1784 6.67888 70.7492 11.6161 70.7975 11.6645C70.8458 11.7129 76.628 5.00086 77.1112 5.54945C77.5944 6.09803 73.6483 11.2289 73.6483 11.2289C74.051 11.6323 80.3003 4.77498 80.3003 4.77498C80.7513 5.22675 74.7436 10.3899 75.0979 10.761L81.621 4.45228C82.2008 5.0654 76.2898 10.6803 76.2898 10.6803L83.2155 3.96824C83.2155 3.96824 78.6896 9.8413 78.7863 10.0026C78.8829 10.164 85.7765 3.25831 85.7765 3.25831C85.7765 3.25831 78.9151 9.32499 79.4305 9.8413C79.6721 10.0995 86.0342 3.06469 86.2274 3.27444C86.4207 3.48419 80.1553 9.72836 80.2842 9.8897C80.413 10.0511 87.4837 2.93561 87.4837 2.93561C88.0636 3.54873 81.7982 9.38953 81.7982 9.38953C81.7982 9.38953 88.1441 2.24181 88.6434 2.75813C88.6434 2.75813 82.4746 8.97002 82.7968 9.32499C82.7968 9.32499 89.0299 2.19341 89.5776 2.75813C89.5776 2.75813 83.9725 9.58314 84.0531 9.66382C84.1336 9.74449 90.9627 1.77391 91.5587 2.4677C91.6714 2.58065 85.2933 9.24431 85.5671 9.5186L93.1693 2.16114C93.5397 2.54838 86.4851 8.61506 87.0005 9.16364C87.5159 9.71222 94.5544 1.77391 94.6028 1.77391C95.0215 2.20955 88.5145 8.61506 88.8206 8.93775C88.8206 8.93775 96.1651 1.37054 96.3906 1.59642C95.3145 3.58118 94.1372 5.50915 92.8633 7.37268C93.3626 7.88899 98.7421 1.77391 98.7421 1.77391L97.0509 5.37196C97.0509 5.37196 100.755 1.20919 101.029 1.49961C101.029 1.49961 96.6644 5.11381 97.0026 5.48491C97.3409 5.85601 100.981 1.14465 101.222 1.40281L99.7246 4.82338C100.83 3.56506 102.037 2.39947 103.332 1.33827L102.237 4.43615C102.318 4.53296 105.458 1.20919 105.458 1.20919C105.458 1.20919 105.603 3.00015 105.636 3.04855C105.668 3.09696 107.649 0.789684 107.858 1.01557L108.986 2.0966C109.279 1.85411 109.554 1.58982 109.807 1.306L109.099 2.0482C109.099 2.12887 109.904 1.27373 109.904 1.27373L109.372 1.93525C109.372 1.93525 109.936 1.24146 109.936 1.33827C109.936 1.43508 110.951 1.56415 110.983 1.59642L111.547 1.17692" stroke="#1D1D1D" stroke-width="0.450589" stroke-linecap="round" stroke-linejoin="round"/>
<path d="M131.148 4.17791L131.631 3.71L131.341 4.25859L131.954 3.67773C131.967 4.21958 132.027 4.7593 132.131 5.29121C132.243 5.40416 133.049 4.25859 133.113 4.33926C132.987 5.01498 132.922 5.70087 132.92 6.38838C133.46 5.80321 134.047 5.26356 134.675 4.7749C134.837 4.95238 133.548 7.16285 133.548 7.17898C133.548 7.19512 135.706 4.64582 135.948 4.83944C135.559 6.18198 135.019 7.47574 134.337 8.69565C134.531 8.9054 137.559 5.59777 137.559 5.59777C137.559 5.59777 134.804 8.82473 134.998 9.03448L138.219 5.80753C138.557 6.16249 135.352 9.64761 135.352 9.64761L139.169 5.9366C139.169 5.9366 137.059 9.74441 137.124 9.84122C138.433 8.68728 139.68 7.46471 140.86 6.17863C140.86 6.17863 137.317 9.48626 137.623 9.84122C137.929 10.1962 140.973 6.42065 141.07 6.51746C141.166 6.61427 138.171 10.051 138.235 10.1155C138.299 10.1801 141.827 6.61427 141.827 6.61427C142.101 6.90469 139.507 9.84122 139.507 9.84122C139.507 9.84122 142.262 6.72721 142.487 6.9531C141.701 7.85985 140.985 8.82535 140.345 9.84122C140.345 9.84122 142.729 7.08217 142.954 7.3242C142.954 7.3242 141.521 10.2123 141.569 10.2446C141.617 10.2769 143.985 7.48554 144.194 7.6953C144.404 7.90505 143.228 9.84122 143.292 9.84122L145.193 8.00186C145.193 8.08253 144.178 9.79282 144.291 9.90576C144.404 10.0187 146.143 8.13094 146.159 8.22774C146.175 8.32455 144.919 10.7932 145.016 10.89C145.112 10.9868 147.222 8.64725 147.287 8.71179C147.351 8.77633 146.578 11.6967 146.578 11.6967L148.591 9.63147L147.528 12.7455C147.528 12.7455 149.944 10.0348 150.202 10.2123C150.46 10.3898 147.271 12.6648 147.496 12.923C147.722 13.1811 150.202 9.98643 150.283 10.1639L148.833 13.5361C149.687 12.5574 150.624 11.6557 151.636 10.8416L150.202 14.3106C150.202 14.3751 153.069 11.4547 153.069 11.4547C153.069 11.4547 152.715 13.7136 152.763 13.7781C152.811 13.8426 154.502 11.6967 154.712 11.8903C154.921 12.084 155.453 13.165 155.469 13.1973C155.485 13.2295 155.839 12.8423 155.839 12.8423" stroke="#1D1D1D" stroke-width="0.450589" stroke-linecap="round" stroke-linejoin="round"/>
<path d="M161.476 38.303C161.479 38.3191 161.478 38.3356 161.473 38.3512C161.468 38.3668 161.46 38.3813 161.45 38.3935C161.439 38.4058 161.426 38.4156 161.411 38.4222C161.396 38.4289 161.38 38.4323 161.364 38.4321C160.623 38.4321 156.661 38.4321 155.807 36.5443C154.871 34.7142 153.443 33.1828 151.684 32.1234C149.944 30.9617 147.496 23.0072 145.66 26.7344C145.352 27.3857 145.262 28.1195 145.404 28.8262C145.546 29.5329 145.913 30.1745 146.449 30.6551C146.555 30.7253 146.645 30.8184 146.71 30.9275C146.776 31.0366 146.816 31.1591 146.829 31.2859C146.841 31.4127 146.825 31.5407 146.782 31.6604C146.738 31.7802 146.669 31.8888 146.578 31.9782C145.741 33.1076 144.694 33.0753 142.874 33.5917C141.054 34.108 139.652 42.2399 141.263 41.8849C142.874 41.53 144.919 40.0456 147.174 40.82C149.429 41.5945 158.448 47.0803 155.324 49.4199C154.776 49.8394 150.685 45.6605 149.364 45.241C148.463 44.9344 150.476 48.0968 150.782 49.0811C151.836 52.0163 152.132 55.171 151.642 58.2517C151.152 61.3323 149.892 64.2387 147.979 66.7002C146.804 68.4105 152.086 70.2499 151.893 72.6217C151.7 74.9935 150.283 77.7687 148.946 77.3008C147.609 76.8329 148.817 73.1542 146.932 72.1377C145.048 71.1212 141.666 67.1197 140.184 69.3786C138.702 71.6375 136.866 77.0588 139.056 78.2527C141.247 79.4467 144.661 79.4951 145.386 84.7067C146.111 89.9182 140.409 105.456 132.501 107.65C124.593 109.845 125.221 112.12 127.895 114.54C130.568 116.96 135.513 124.221 129.666 128.335C123.82 132.45 124.094 126.722 120.212 125.382C116.33 124.043 115.911 129.723 118.44 132.466C120.969 135.209 126.026 137.855 125.897 141.065C125.769 144.276 124.287 142.986 122.064 142.05C119.841 141.114 120.164 138.193 116.975 136.064C113.785 133.934 115.251 128.948 113.254 125.124C111.257 121.3 107.713 122.268 105.201 119.784C102.688 117.299 104.669 114.137 101.883 111.168C99.0964 108.199 93.2659 106.15 90.5117 110.99C88.2438 115.058 84.9434 118.453 80.9445 120.832C77.8843 122.607 82.1525 127.286 79.5432 130.804C78.5036 132.284 77.1782 133.54 75.6455 134.499C75.5299 134.563 75.4019 134.601 75.2702 134.611C75.1385 134.621 75.0063 134.602 74.8824 134.556C74.7586 134.51 74.6461 134.438 74.5526 134.345C74.4592 134.251 74.3869 134.139 74.3409 134.015C72.8591 130.239 67.3829 115.766 67.8983 110.393C68.4942 104.181 53.2093 103.197 48.023 99.7766C42.8368 96.356 38.9712 85.3682 37.3445 86.6428C35.7177 87.9175 35.8788 100.858 39.3417 100.68C41.2228 100.547 43.1133 100.666 44.9628 101.035V101.035C45.2527 101.422 49.3115 106.795 45.1239 110.716C40.9362 114.637 29.098 119.074 27.1169 117.444C25.1358 115.815 26.0217 88.4015 23.654 86.2717C21.2864 84.1419 21.834 101.406 21.834 105.246C21.834 109.086 22.8004 118.541 24.5721 119.558C26.3438 120.574 33.4789 124.318 34.5581 122.478C35.6372 120.639 34.3809 137 25.4741 142.518C16.5672 148.036 28.0189 165.671 29.2913 168.946C30.2738 171.48 31.1435 178.627 31.7233 181.757C31.8039 182.193 31.7233 182.145 31.3851 181.757C21.5608 171.638 13.843 159.662 8.68048 146.528C3.51795 133.393 1.01374 119.362 1.31348 105.249C1.61323 91.1357 4.71095 77.2234 10.4265 64.3207C16.142 51.4179 24.3613 39.7823 34.6064 30.0904V30.0904C34.9124 29.9775 63.5979 19.7803 65.9494 22.5393C68.301 25.2984 61.4235 32.6074 65.9494 31.5748C70.4753 30.5422 78.4319 27.412 80.4452 29.1385C82.4585 30.8649 84.6167 28.0736 88.4984 26.8796C92.38 25.6856 101.384 22.1844 101.69 22.0392C106.873 22.7557 112.13 22.7557 117.313 22.0392C124.689 20.8452 135.545 12.8101 140.538 14.4719C145.531 16.1338 148.881 17.4085 150.299 20.2321C151.716 23.0556 150.395 24.9434 151.797 26.4601C153.198 27.9768 155.356 29.4289 156.886 31.0746C158.416 32.7204 161.042 36.383 161.476 38.303Z" stroke="#1D1D1D" stroke-width="1.6" stroke-miterlimit="10"/>
<path d="M156.274 53.0825C156.274 53.0825 158.255 55.0187 157.659 56.0029C157.063 56.9871 158.32 60.1173 158.916 60.6497C159.501 61.4133 159.876 62.3164 160.006 63.27C160.136 64.2235 160.016 65.1945 159.657 66.0871C158.594 68.346 158.658 70.2661 157.337 71.2503C156.017 72.2345 153.423 75.768 154.551 77.4299C155.678 79.0918 156.709 81.6734 157.192 81.0118C157.676 80.3503 156.87 77.4944 158.062 75.5099C159.254 73.5253 161.831 72.7831 163.426 70.5242C164.131 69.6772 164.571 68.6397 164.688 67.5427C164.806 66.4457 164.596 65.3385 164.086 64.3607C163.152 62.2955 160.687 58.9233 159.512 58.8588C158.336 58.7942 158.433 58.052 159.512 57.2453C160.591 56.4385 161.299 57.3744 161.767 55.3898C162.234 53.4052 161.573 53.9215 161.106 52.4694C160.639 51.0173 159.657 52.8728 158.255 52.4694C156.854 52.066 156.145 51.4206 156.274 53.0825Z" stroke="#1D1D1D" stroke-width="1.6" stroke-miterlimit="10"/>
<path d="M136.206 140.759C135.4 142.486 134.482 145.245 136.206 147.1C137.929 148.956 146.224 151.828 148.189 149.746C150.154 147.665 150.025 141.679 151.877 140.065C153.729 138.452 149.912 135.693 150.202 133.595C150.492 131.498 148.833 128.061 146.755 129.562C144.678 131.062 143.405 136.709 141.102 137.984C138.799 139.259 136.206 140.759 136.206 140.759Z" stroke="#1D1D1D" stroke-width="1.6" stroke-miterlimit="10"/>
<path d="M172.252 135.418C173.605 132.53 176.826 137.79 178.694 135.418C181.819 131.61 191.209 131.723 193.319 134.66C194.93 136.854 194.414 139.5 196.444 140.533C198.473 141.565 199.198 142.743 196.444 143.292C193.689 143.84 192.224 138.338 190.194 141.097C189.569 142.151 188.683 143.025 187.622 143.635C186.561 144.246 185.362 144.572 184.138 144.583C181.384 144.954 184.138 142.017 182.673 140.904C181.207 139.791 176.021 141.452 175.103 139.807C174.184 138.161 170.722 138.71 172.252 135.418Z" stroke="#1D1D1D" stroke-width="1.6" stroke-miterlimit="10"/>
<path d="M193.158 170.979C193.158 170.979 195.799 164.525 194.769 161.298C193.738 158.071 188.326 152.005 188.326 148.81C188.326 145.615 186.619 148.019 186.361 152.327C186.103 156.635 186.103 159.475 183.784 159.168C181.465 158.862 180.563 156.28 179.918 154.134C179.274 151.988 173.476 150.262 172.171 154.134C170.867 158.007 161.767 167.704 156.693 170.915C151.619 174.125 143.55 174.464 144.839 181.096C146.127 187.727 147.673 191.438 146.981 191.954C146.288 192.471 146.546 193.568 151.104 191.083C155.662 188.598 169.997 179.885 171.817 182.386C172.745 183.655 174.023 184.624 175.494 185.174C176.965 185.725 178.564 185.833 180.096 185.484C184.884 181.06 189.256 176.204 193.158 170.979Z" stroke="#1D1D1D" stroke-width="1.6" stroke-miterlimit="10"/>
<path d="M34.687 167.704C34.687 167.704 37.9082 165.784 37.9082 164.267C37.9082 162.751 38.633 163.816 39.9538 166.317C41.2745 168.818 40.6785 169.737 41.3228 172.9C41.9671 176.062 44.0931 180.483 43.3683 180.806C42.6435 181.128 37.9082 178.692 37.119 175.61C36.3298 172.528 36.6681 172.593 35.0896 170.56C33.5112 168.527 33.785 168.446 34.687 167.704Z" stroke="#1D1D1D" stroke-width="1.6" stroke-miterlimit="10"/>
<path d="M80.7352 134.079C80.7352 136.015 79.8977 140.533 82.1042 139.275C84.3108 138.016 83.7149 137.661 83.2639 136.177C82.6824 134.896 82.0152 133.656 81.2667 132.466C80.9446 131.74 80.7996 132.724 80.7352 134.079Z" stroke="#1D1D1D" stroke-width="1.6" stroke-miterlimit="10"/>
<path d="M106.28 140.259C106.28 140.259 115.493 148.326 115.573 149.665C115.654 151.005 126.526 158.62 128.072 158.072C129.618 157.523 129.682 154.409 128.974 152.957C128.265 151.505 120.921 148.746 119.777 147.745C118.132 146.297 116.388 144.966 114.559 143.76C112.739 142.695 107.085 138.355 106.28 140.259Z" stroke="#1D1D1D" stroke-width="1.6" stroke-miterlimit="10"/>
<path d="M132.791 157.604C132.582 157.475 133.677 156.394 134.402 155.506C135.126 154.619 139.233 156.152 142.068 155.91C144.903 155.668 154.953 154.474 156.564 154.151C158.175 153.828 160.011 153.199 160.413 154.151C160.816 155.103 154.728 158.491 150.75 158.088C146.771 157.685 135.223 158.959 132.791 157.604Z" stroke="#1D1D1D" stroke-width="1.6" stroke-miterlimit="10"/>
<path d="M111.708 1.17703C111.708 1.51586 105.764 3.22615 103.139 4.1297C99.7567 5.30754 95.3758 5.14619 94.0229 6.67899C92.6699 8.2118 87.0971 9.72847 83.7148 9.56712C80.3324 9.40577 69.3479 12.2616 66.9802 12.5843C64.6126 12.907 67.7855 9.09921 68.0916 8.72811C80.6694 3.6545 94.1057 1.05782 107.665 1.08022C109.018 1.08022 110.355 1.09636 111.708 1.17703Z" stroke="#1D1D1D" stroke-width="1.6" stroke-miterlimit="10"/>
<path d="M155.775 13.0678C155.292 14.2295 152.167 14.0843 150.299 14.2134C148.43 14.3425 144.21 9.37296 143.26 9.87314C142.31 10.3733 138.67 9.96995 136.528 9.87314C134.675 9.84087 131.986 5.32313 131.245 4.01621C131.231 3.99011 131.225 3.96109 131.225 3.93175C131.226 3.9024 131.233 3.87365 131.248 3.84808C131.262 3.8225 131.283 3.80088 131.307 3.78517C131.332 3.76946 131.36 3.76015 131.39 3.75806V3.75806C140.2 5.53288 151.281 9.74406 155.743 13.0678H155.775Z" stroke="#1D1D1D" stroke-width="1.6" stroke-miterlimit="10"/>
<path d="M25.1036 142.84L30.0483 138C30.3704 138.339 26.3921 141.582 26.5532 141.743L29.0658 139.307" stroke="#1D1D1D" stroke-width="1.6" stroke-linecap="round" stroke-linejoin="round"/>
<path d="M80.9446 120.8C81.3956 121.252 88.9978 112.378 89.3038 112.733C89.6098 113.088 82.4747 118.719 83.0867 119.348C84.7757 117.883 86.3885 116.332 87.9187 114.701C87.9187 114.701 83.6988 118.46 83.9243 118.702C83.9243 118.702 87.0489 115.201 87.2744 115.475" stroke="#1D1D1D" stroke-width="1.6" stroke-linecap="round" stroke-linejoin="round"/>
</svg>
