<svg id="visual" viewBox="0 0 900 600" width="900" height="600" xmlns="http://www.w3.org/2000/svg" xmlns:xlink="http://www.w3.org/1999/xlink" version="1.1"><path d="M0 187L25 196C50 205 100 223 150 220C200 217 250 193 300 178C350 163 400 157 450 156C500 155 550 159 600 163C650 167 700 171 750 184C800 197 850 219 875 230L900 241L900 0L875 0C850 0 800 0 750 0C700 0 650 0 600 0C550 0 500 0 450 0C400 0 350 0 300 0C250 0 200 0 150 0C100 0 50 0 25 0L0 0Z" fill="#f1f1f1"></path><path d="M0 355L25 355C50 355 100 355 150 355C200 355 250 355 300 349C350 343 400 331 450 333C500 335 550 351 600 364C650 377 700 387 750 386C800 385 850 373 875 367L900 361L900 239L875 228C850 217 800 195 750 182C700 169 650 165 600 161C550 157 500 153 450 154C400 155 350 161 300 176C250 191 200 215 150 218C100 221 50 203 25 194L0 185Z" fill="#a2bcd9"></path><path d="M0 439L25 440C50 441 100 443 150 448C200 453 250 461 300 466C350 471 400 473 450 467C500 461 550 447 600 448C650 449 700 465 750 472C800 479 850 477 875 476L900 475L900 359L875 365C850 371 800 383 750 384C700 385 650 375 600 362C550 349 500 333 450 331C400 329 350 341 300 347C250 353 200 353 150 353C100 353 50 353 25 353L0 353Z" fill="#6d9dcb"></path><path d="M0 511L25 515C50 519 100 527 150 532C200 537 250 539 300 541C350 543 400 545 450 542C500 539 550 531 600 529C650 527 700 531 750 530C800 529 850 523 875 520L900 517L900 473L875 474C850 475 800 477 750 470C700 463 650 447 600 446C550 445 500 459 450 465C400 471 350 469 300 464C250 459 200 451 150 446C100 441 50 439 25 438L0 437Z" fill="#a2bcd9"></path><path d="M0 601L25 601C50 601 100 601 150 601C200 601 250 601 300 601C350 601 400 601 450 601C500 601 550 601 600 601C650 601 700 601 750 601C800 601 850 601 875 601L900 601L900 515L875 518C850 521 800 527 750 528C700 529 650 525 600 527C550 529 500 537 450 540C400 543 350 541 300 539C250 537 200 535 150 530C100 525 50 517 25 513L0 509Z" fill="#f1f1f1"></path></svg>